<?xml version="1.0" standalone="no"?>
<!DOCTYPE svg PUBLIC "-//W3C//DTD SVG 20010904//EN"
 "http://www.w3.org/TR/2001/REC-SVG-20010904/DTD/svg10.dtd">
<svg version="1.0" xmlns="http://www.w3.org/2000/svg"
 width="512.000000pt" height="512.000000pt" viewBox="0 0 512.000000 512.000000"
 preserveAspectRatio="xMidYMid meet">
<metadata>
Created by potrace 1.11, written by Peter Selinger 2001-2013
</metadata>
<g transform="translate(0.000000,512.000000) scale(0.100000,-0.100000)"
fill="#000000" stroke="none">
<path d="M680 5108 c-351 -50 -624 -330 -670 -688 -8 -60 -10 -631 -8 -1915
l3 -1830 22 -75 c85 -299 292 -501 589 -577 65 -17 185 -18 1944 -18 1759 0
1879 1 1944 18 302 77 516 291 593 593 17 65 18 185 18 1944 0 1759 -1 1879
-18 1944 -76 297 -278 504 -577 589 l-75 22 -1850 1 c-1097 1 -1876 -2 -1915
-8z m2524 -252 c20 -8 362 -323 815 -750 665 -627 782 -741 790 -773 7 -25 11
-268 11 -693 0 -616 -2 -657 -19 -696 -10 -22 -32 -51 -48 -65 -17 -13 -420
-370 -897 -794 -477 -424 -883 -782 -902 -796 -48 -38 -106 -44 -179 -20 -90
29 -1994 740 -2024 756 -39 20 -81 68 -87 99 -9 50 -45 201 -51 216 -4 8 -8
20 -8 25 -1 6 -5 17 -8 25 -10 24 -115 470 -122 520 -3 25 -13 70 -21 100 -8
30 -17 62 -19 70 -2 8 -4 17 -6 20 -1 3 -3 10 -4 15 -1 6 -5 17 -8 25 -3 8
-33 130 -67 271 -75 319 -77 360 -22 451 80 131 111 185 145 255 20 39 69 129
110 200 41 70 81 142 89 158 40 78 101 190 122 223 12 20 45 80 73 132 52 97
164 302 282 514 39 70 79 128 98 143 28 21 135 44 850 183 450 88 852 168 893
178 92 24 170 26 214 8z"/>
<path d="M2828 4469 c-10 -5 -24 -9 -30 -8 -7 1 -20 -1 -28 -4 -20 -8 -237
-49 -325 -62 -11 -1 -28 -6 -38 -10 -10 -4 -21 -5 -24 -1 -3 3 -11 2 -18 -4
-6 -5 -35 -11 -64 -14 -58 -5 -334 -57 -329 -61 3 -3 136 -46 358 -115 74 -23
203 -63 285 -90 83 -26 153 -45 157 -41 3 3 9 26 12 50 3 25 24 113 46 197 22
84 40 157 40 163 0 14 -19 14 -42 0z"/>
<path d="M3148 4178 c-31 -123 -54 -224 -53 -226 3 -3 885 -282 892 -282 2 0
-16 17 -39 37 -81 71 -432 403 -642 606 -49 48 -92 87 -96 87 -3 0 -31 -100
-62 -222z"/>
<path d="M1633 4043 c19 -32 68 -147 80 -189 8 -28 20 -60 26 -70 18 -31 51
-115 51 -129 0 -7 9 -34 20 -59 11 -26 20 -50 21 -54 0 -4 4 -11 9 -17 10 -12
118 -287 132 -335 6 -19 15 -41 20 -47 6 -7 7 -13 3 -13 -4 0 -3 -6 3 -13 12
-14 159 -382 174 -437 6 -19 13 -39 18 -45 4 -5 33 -77 65 -160 32 -82 61
-153 64 -157 4 -4 22 54 40 130 19 75 38 142 42 148 5 6 6 14 3 17 -3 3 -2 12
2 19 5 7 10 24 12 38 3 29 140 567 149 590 3 8 5 19 4 24 -1 4 3 13 8 20 5 6
12 31 16 56 3 25 24 115 46 200 21 85 36 157 31 161 -4 4 -74 28 -157 54 -82
25 -233 73 -335 105 -102 32 -232 73 -290 90 -58 18 -136 43 -175 56 -74 26
-89 29 -82 17z"/>
<path d="M1007 3381 c-169 -307 -307 -564 -307 -569 0 -9 140 -83 570 -300 96
-48 304 -154 463 -234 158 -80 287 -144 287 -143 0 2 -156 401 -346 887 -190
485 -349 891 -353 901 -5 13 -91 -134 -314 -542z"/>
<path d="M3005 3607 c-13 -39 -363 -1433 -360 -1435 2 -2 21 8 44 22 22 14 44
26 49 26 4 0 17 8 28 18 20 19 131 92 139 92 8 0 119 73 139 91 10 10 38 27
61 38 23 11 62 36 88 55 26 20 51 36 56 36 5 0 35 20 68 44 32 24 80 56 108
71 27 15 102 62 167 106 65 43 120 79 123 79 2 0 24 13 47 29 24 16 106 70
183 119 239 154 334 217 331 220 -2 1 -282 90 -622 197 -341 108 -625 197
-632 200 -7 3 -15 -1 -17 -8z"/>
<path d="M4050 2661 c-14 -10 -47 -31 -75 -46 -27 -15 -52 -31 -55 -35 -3 -4
-20 -15 -39 -25 -19 -9 -42 -25 -52 -34 -10 -9 -44 -31 -76 -50 -32 -19 -69
-41 -82 -50 -13 -9 -42 -27 -65 -40 -22 -13 -46 -30 -53 -36 -7 -7 -54 -39
-105 -70 -51 -32 -139 -88 -195 -124 -55 -36 -143 -93 -195 -126 -51 -32 -95
-62 -98 -65 -3 -3 -45 -30 -95 -60 -100 -60 -267 -170 -275 -180 -3 -4 -13
-10 -24 -13 -13 -5 -15 -11 -9 -20 6 -6 36 -84 68 -172 61 -168 101 -276 153
-410 17 -44 47 -125 67 -180 20 -55 40 -104 45 -109 5 -5 26 18 49 55 58 95
268 424 316 499 146 224 826 1302 823 1305 -2 2 -14 -5 -28 -14z"/>
<path d="M4390 2524 c-47 -75 -102 -161 -122 -192 -21 -32 -41 -64 -45 -72 -3
-8 -36 -60 -71 -115 -36 -55 -80 -122 -97 -150 -17 -27 -57 -89 -89 -137 -31
-48 -80 -126 -109 -172 -28 -47 -87 -139 -130 -206 l-77 -122 127 114 c71 62
257 227 416 367 l287 255 0 283 c0 156 -1 283 -2 283 -2 0 -41 -61 -88 -136z"/>
<path d="M704 2402 c3 -9 55 -229 117 -488 l112 -470 386 138 c212 77 432 155
489 175 56 21 102 39 102 43 0 3 -69 40 -152 83 -84 42 -250 127 -368 188
-689 353 -693 355 -686 331z"/>
<path d="M1820 1400 c-228 -82 -448 -162 -489 -176 l-74 -27 264 -98 c144 -54
281 -107 304 -118 22 -10 65 -26 96 -34 30 -9 73 -24 95 -34 21 -9 41 -17 44
-18 16 -2 168 -60 185 -71 11 -7 76 -31 145 -54 69 -23 129 -45 135 -48 22
-14 37 -11 30 6 -4 9 -18 44 -30 77 -12 33 -26 69 -30 80 -4 11 -15 43 -25 70
-10 28 -28 75 -40 106 -12 31 -23 63 -24 70 -1 8 -15 40 -29 73 -15 32 -27 62
-27 67 0 5 -6 23 -14 41 -8 18 -31 79 -51 136 -21 56 -40 102 -44 101 -3 0
-193 -67 -421 -149z"/>
</g>
</svg>
